<svg width="14" height="12" viewBox="0 0 14 12" fill="none" xmlns="http://www.w3.org/2000/svg">
<path d="M13.5196 6.80414L8.84046 11.517C8.69395 11.6645 8.49524 11.7474 8.28805 11.7474C8.08086 11.7474 7.88215 11.6645 7.73565 11.517C7.58914 11.3694 7.50683 11.1693 7.50683 10.9606C7.50683 10.7519 7.58914 10.5518 7.73565 10.4042L11.0832 7.03389H1.52987C1.32303 7.03389 1.12467 6.95114 0.978417 6.80383C0.832164 6.65653 0.75 6.45674 0.75 6.24842C0.75 6.0401 0.832164 5.84031 0.978417 5.693C1.12467 5.5457 1.32303 5.46295 1.52987 5.46295H11.0832L7.73694 2.09065C7.59044 1.94309 7.50813 1.74295 7.50813 1.53427C7.50813 1.32559 7.59044 1.12546 7.73694 0.977895C7.88345 0.830335 8.08216 0.747437 8.28935 0.747437C8.49654 0.747437 8.69525 0.830335 8.84175 0.977895L13.5209 5.69073C13.5937 5.7638 13.6513 5.85062 13.6906 5.94621C13.7299 6.04179 13.7501 6.14425 13.75 6.24771C13.7499 6.35117 13.7295 6.45358 13.6899 6.54907C13.6504 6.64456 13.5925 6.73124 13.5196 6.80414Z" fill="#60A5FA"/>
</svg>
